<?xml version="1.0" encoding="UTF-8"?>
<!DOCTYPE svg PUBLIC "-//W3C//DTD SVG 1.1//EN" "http://www.w3.org/Graphics/SVG/1.1/DTD/svg11.dtd">
<svg xmlns="http://www.w3.org/2000/svg" version="1.1" width="1447px" height="1604px" style="shape-rendering:geometricPrecision; text-rendering:geometricPrecision; image-rendering:optimizeQuality; fill-rule:evenodd; clip-rule:evenodd" xmlns:xlink="http://www.w3.org/1999/xlink">
<g><path style="opacity:0.992" fill="#e6282a" d="M 709.5,-0.5 C 718.167,-0.5 726.833,-0.5 735.5,-0.5C 792.708,9.54123 826.542,43.2079 837,100.5C 840.39,156.571 816.89,196.738 766.5,221C 722.634,236.757 682.634,230.09 646.5,201C 609.896,165.082 599.396,122.582 615,73.5C 632.943,31.3773 664.443,6.71066 709.5,-0.5 Z"/></g>
<g><path style="opacity:0.996" fill="#d1b529" d="M 722.5,254.5 C 723.496,254.414 724.329,254.748 725,255.5C 742.333,284.833 759.667,314.167 777,343.5C 777.5,424.166 777.667,504.833 777.5,585.5C 740.833,585.5 704.167,585.5 667.5,585.5C 667.333,506.166 667.5,426.833 668,347.5C 686.421,316.595 704.588,285.595 722.5,254.5 Z"/></g>
<g><path style="opacity:0.993" fill="#d1b529" d="M 518.5,597.5 C 655.167,597.333 791.834,597.5 928.5,598C 946.5,628 964.5,658 982.5,688C 809.833,688.667 637.167,688.667 464.5,688C 482.9,658.026 500.9,627.859 518.5,597.5 Z"/></g>
<g><path style="opacity:0.999" fill="#d1b529" d="M 667.5,700.5 C 705.5,700.5 743.5,700.5 781.5,700.5C 781.5,866.833 781.5,1033.17 781.5,1199.5C 743.5,1199.5 705.5,1199.5 667.5,1199.5C 667.5,1033.17 667.5,866.833 667.5,700.5 Z"/></g>
<g><path style="opacity:0.986" fill="#d1b529" d="M 448.5,714.5 C 449.5,843.332 449.833,972.332 449.5,1101.5C 416.5,1101.5 383.5,1101.5 350.5,1101.5C 350.333,1026.83 350.5,952.166 351,877.5C 383.511,823.139 416.011,768.806 448.5,714.5 Z"/></g>
<g><path style="opacity:0.985" fill="#d1b529" d="M 997.5,714.5 C 998.458,714.953 999.292,715.619 1000,716.5C 1032,769.833 1064,823.167 1096,876.5C 1096.5,951.499 1096.67,1026.5 1096.5,1101.5C 1063.5,1101.5 1030.5,1101.5 997.5,1101.5C 997.5,972.5 997.5,843.5 997.5,714.5 Z"/></g>
<g><path style="opacity:0.988" fill="#d1b529" d="M 209.5,1112.5 C 358.167,1112.5 506.833,1112.5 655.5,1112.5C 655.5,1140.5 655.5,1168.5 655.5,1196.5C 489.833,1197.54 324.166,1197.54 158.5,1196.5C 175.511,1168.47 192.511,1140.47 209.5,1112.5 Z"/></g>
<g><path style="opacity:0.99" fill="#d1b529" d="M 793.5,1112.5 C 941.167,1112.33 1088.83,1112.5 1236.5,1113C 1253.29,1140.75 1269.96,1168.58 1286.5,1196.5C 1122.17,1197.5 957.835,1197.83 793.5,1197.5C 793.5,1169.17 793.5,1140.83 793.5,1112.5 Z"/></g>
<g><path style="opacity:0.821" fill="#000000" d="M 578.5,1314.5 C 590.988,1311.52 598.488,1316.52 601,1329.5C 602.108,1333.09 602.608,1336.75 602.5,1340.5C 601.127,1340.66 599.793,1340.49 598.5,1340C 591.136,1334.32 582.803,1331.48 573.5,1331.5C 573.326,1329.14 572.993,1326.81 572.5,1324.5C 583.237,1324.29 592.071,1328.29 599,1336.5C 599.122,1334.83 598.788,1333.16 598,1331.5C 595.399,1327.45 592.232,1323.95 588.5,1321C 586.423,1320.81 584.423,1320.31 582.5,1319.5C 581.113,1317.79 579.779,1316.12 578.5,1314.5 Z"/></g>
<g><path style="opacity:0.903" fill="#000000" d="M 214.5,1320.5 C 223.361,1318.52 229.861,1321.52 234,1329.5C 236.146,1333.44 237.979,1337.44 239.5,1341.5C 260.833,1341.5 282.167,1341.5 303.5,1341.5C 303.5,1343.17 303.5,1344.83 303.5,1346.5C 299.833,1346.5 296.167,1346.5 292.5,1346.5C 292.667,1362.5 292.5,1378.5 292,1394.5C 286.095,1390.03 283.762,1384.03 285,1376.5C 282.347,1378.94 279.18,1379.94 275.5,1379.5C 264.712,1379.04 259.378,1373.38 259.5,1362.5C 267.658,1361.52 270.158,1357.19 267,1349.5C 266.167,1348.67 265.333,1347.83 264.5,1347C 257.842,1346.5 251.175,1346.33 244.5,1346.5C 244.833,1362.51 244.499,1378.51 243.5,1394.5C 241.517,1393.02 239.684,1391.35 238,1389.5C 237.5,1375.17 237.333,1360.84 237.5,1346.5C 232.5,1346.5 227.5,1346.5 222.5,1346.5C 222.667,1362.5 222.5,1378.5 222,1394.5C 220,1392.5 218,1390.5 216,1388.5C 215.5,1379.51 215.334,1370.51 215.5,1361.5C 209.129,1361.49 202.796,1361.99 196.5,1363C 192.295,1365.95 191.128,1369.78 193,1374.5C 196.513,1380.19 200.513,1385.52 205,1390.5C 205.601,1391.97 205.101,1392.97 203.5,1393.5C 198.203,1388.25 193.369,1382.58 189,1376.5C 184.788,1368.62 186.288,1362.12 193.5,1357C 200.826,1356.5 208.159,1356.33 215.5,1356.5C 215.5,1353.17 215.5,1349.83 215.5,1346.5C 200.818,1346.17 186.152,1346.5 171.5,1347.5C 172.606,1351.78 172.772,1356.11 172,1360.5C 169.203,1364.96 166.036,1369.13 162.5,1373C 166.22,1379.39 170.72,1385.23 176,1390.5C 176.483,1391.45 176.649,1392.45 176.5,1393.5C 175.448,1393.65 174.448,1393.48 173.5,1393C 166.959,1386.13 160.793,1378.96 155,1371.5C 149.144,1362.38 151.644,1358.22 162.5,1359C 167.395,1355.34 167.728,1351.34 163.5,1347C 154.84,1346.5 146.173,1346.33 137.5,1346.5C 137.833,1362.51 137.499,1378.51 136.5,1394.5C 134.517,1393.02 132.684,1391.35 131,1389.5C 130.5,1375.17 130.333,1360.84 130.5,1346.5C 125.5,1346.5 120.5,1346.5 115.5,1346.5C 115.667,1362.5 115.5,1378.5 115,1394.5C 113.333,1392.83 111.667,1391.17 110,1389.5C 109.501,1383.84 109.334,1378.18 109.5,1372.5C 104.5,1372.5 99.5,1372.5 94.5,1372.5C 94.5793,1375.27 94.0793,1377.94 93,1380.5C 91.2739,1381.58 89.4406,1381.74 87.5,1381C 85,1377.83 82.5,1374.67 80,1371.5C 79.5065,1369.87 79.3398,1368.2 79.5,1366.5C 82.5,1366.5 85.5,1366.5 88.5,1366.5C 88.5,1363.83 88.5,1361.17 88.5,1358.5C 75.9801,1358.84 71.9801,1353.34 76.5,1342C 86.1115,1341.92 91.9448,1346.75 94,1356.5C 94.4983,1359.82 94.665,1363.15 94.5,1366.5C 99.5,1366.5 104.5,1366.5 109.5,1366.5C 109.5,1359.83 109.5,1353.17 109.5,1346.5C 106.31,1346.56 103.143,1346.89 100,1347.5C 97.0377,1346.96 94.871,1345.29 93.5,1342.5C 132.167,1341.83 170.833,1341.17 209.5,1340.5C 205.869,1332.41 207.536,1325.74 214.5,1320.5 Z M 218.5,1326.5 C 221.32,1326.25 223.986,1326.75 226.5,1328C 230.318,1331.97 233.651,1336.31 236.5,1341C 229.833,1341.67 223.167,1341.67 216.5,1341C 213.479,1335.65 214.146,1330.81 218.5,1326.5 Z M 79.5,1345.5 C 85.9817,1345.65 88.9817,1348.98 88.5,1355.5C 80.4963,1356.5 77.4963,1353.17 79.5,1345.5 Z M 272.5,1347.5 C 276.634,1346.52 280.968,1346.18 285.5,1346.5C 285.884,1353.59 285.384,1360.59 284,1367.5C 280.23,1374.41 274.73,1376.25 267.5,1373C 263.433,1370.02 263.766,1368.02 268.5,1367C 274.802,1361.45 276.135,1354.95 272.5,1347.5 Z"/></g>
<g><path style="opacity:0.899" fill="#000000" d="M 697.5,1320.5 C 712.031,1319.68 721.365,1326.34 725.5,1340.5C 748.5,1341.83 771.5,1341.83 794.5,1340.5C 789.814,1325.69 795.148,1319.19 810.5,1321C 817.525,1326.21 822.192,1333.05 824.5,1341.5C 829.5,1341.5 834.5,1341.5 839.5,1341.5C 839.5,1343.17 839.5,1344.83 839.5,1346.5C 836.167,1346.5 832.833,1346.5 829.5,1346.5C 829.833,1362.51 829.499,1378.51 828.5,1394.5C 826.517,1393.02 824.684,1391.35 823,1389.5C 822.5,1375.17 822.333,1360.84 822.5,1346.5C 812.833,1346.5 803.167,1346.5 793.5,1346.5C 793.334,1350.85 793.501,1355.18 794,1359.5C 804.611,1355.55 811.111,1359.05 813.5,1370C 812.908,1376.42 809.575,1380.59 803.5,1382.5C 801.6,1381.55 800.267,1380.05 799.5,1378C 804.442,1376.72 807.775,1373.72 809.5,1369C 808.453,1365.3 805.953,1363.47 802,1363.5C 799.314,1364.68 796.981,1366.34 795,1368.5C 793.725,1377.06 793.058,1385.73 793,1394.5C 791,1392.5 789,1390.5 787,1388.5C 786.821,1385.45 786.321,1382.45 785.5,1379.5C 770.279,1384.77 763.445,1379.44 765,1363.5C 765.406,1360.51 766.906,1358.34 769.5,1357C 775.634,1354.97 779.967,1356.8 782.5,1362.5C 775.014,1360.92 770.347,1363.92 768.5,1371.5C 769.633,1375.81 772.3,1377.31 776.5,1376C 779.902,1374.6 782.736,1372.43 785,1369.5C 786.432,1361.95 786.932,1354.28 786.5,1346.5C 774.167,1346.5 761.833,1346.5 749.5,1346.5C 749.667,1362.5 749.5,1378.5 749,1394.5C 747,1392.5 745,1390.5 743,1388.5C 742.5,1374.5 742.333,1360.5 742.5,1346.5C 738.167,1346.5 733.833,1346.5 729.5,1346.5C 729.82,1357.08 729.487,1367.58 728.5,1378C 726.299,1378.82 724.466,1378.32 723,1376.5C 720.578,1372.66 717.911,1368.99 715,1365.5C 714.506,1363.87 714.34,1362.2 714.5,1360.5C 717.167,1360.5 719.833,1360.5 722.5,1360.5C 722.5,1355.83 722.5,1351.17 722.5,1346.5C 715.833,1346.5 709.167,1346.5 702.5,1346.5C 702.833,1362.51 702.499,1378.51 701.5,1394.5C 699.443,1392.73 697.61,1390.73 696,1388.5C 695.5,1374.5 695.333,1360.5 695.5,1346.5C 690.5,1346.5 685.5,1346.5 680.5,1346.5C 680.833,1362.51 680.499,1378.51 679.5,1394.5C 677.517,1393.02 675.684,1391.35 674,1389.5C 673.5,1375.17 673.333,1360.84 673.5,1346.5C 668.5,1346.5 663.5,1346.5 658.5,1346.5C 658.667,1362.5 658.5,1378.5 658,1394.5C 653.109,1389.98 651.109,1384.31 652,1377.5C 645.72,1383.41 638.553,1384.91 630.5,1382C 623.524,1375.15 622.857,1367.82 628.5,1360C 622.56,1357.44 620.226,1353.11 621.5,1347C 616.845,1346.5 612.179,1346.33 607.5,1346.5C 607.833,1362.51 607.499,1378.51 606.5,1394.5C 604.517,1393.02 602.684,1391.35 601,1389.5C 600.5,1375.17 600.333,1360.84 600.5,1346.5C 595.5,1346.5 590.5,1346.5 585.5,1346.5C 585.667,1362.5 585.5,1378.5 585,1394.5C 580.163,1391.13 578.163,1386.46 579,1380.5C 574.833,1384.67 570.667,1388.83 566.5,1393C 564.432,1392.98 562.766,1391.98 561.5,1390C 566.5,1385 571.5,1380 576.5,1375C 567.44,1376.06 560.94,1372.56 557,1364.5C 556.501,1358.51 556.334,1352.51 556.5,1346.5C 554.5,1346.5 552.5,1346.5 550.5,1346.5C 550.5,1344.83 550.5,1343.17 550.5,1341.5C 598.505,1341.83 646.505,1341.5 694.5,1340.5C 689.744,1332.78 690.744,1326.11 697.5,1320.5 Z M 703.5,1325.5 C 709.661,1324.33 714.494,1326.33 718,1331.5C 719.5,1334.5 721,1337.5 722.5,1340.5C 715.189,1341.66 707.856,1341.83 700.5,1341C 696.056,1337.29 695.556,1333.12 699,1328.5C 700.652,1327.6 702.152,1326.6 703.5,1325.5 Z M 803.5,1326.5 C 806.32,1326.25 808.986,1326.75 811.5,1328C 815.318,1331.97 818.651,1336.31 821.5,1341C 814.833,1341.67 808.167,1341.67 801.5,1341C 798.479,1335.65 799.146,1330.81 803.5,1326.5 Z M 562.5,1346.5 C 568.167,1346.5 573.833,1346.5 579.5,1346.5C 579.666,1352.18 579.499,1357.84 579,1363.5C 575.608,1369.47 570.774,1370.97 564.5,1368C 563.874,1367.25 563.374,1366.42 563,1365.5C 562.5,1359.18 562.334,1352.84 562.5,1346.5 Z M 633.5,1346.5 C 639.833,1346.5 646.167,1346.5 652.5,1346.5C 652.666,1353.84 652.5,1361.17 652,1368.5C 647.251,1372.26 642.251,1375.59 637,1378.5C 629.958,1378.13 627.958,1374.8 631,1368.5C 632.214,1366.95 633.714,1365.78 635.5,1365C 638.864,1364.27 642.197,1363.44 645.5,1362.5C 644.5,1361.17 643.5,1359.83 642.5,1358.5C 638.489,1357.97 634.656,1356.97 631,1355.5C 628.578,1351.52 629.411,1348.52 633.5,1346.5 Z"/></g>
<g><path style="opacity:0.783" fill="#000000" d="M 650.5,1321.5 C 655.121,1320.99 659.454,1321.83 663.5,1324C 669.544,1328.38 674.544,1333.71 678.5,1340C 677.167,1340.67 675.833,1340.67 674.5,1340C 669.551,1331.54 662.218,1327.71 652.5,1328.5C 652.122,1326.08 651.455,1323.75 650.5,1321.5 Z"/></g>
<g><path style="opacity:0.775" fill="#000000" d="M 918.5,1326.5 C 921.352,1326.35 923.019,1327.69 923.5,1330.5C 921.108,1335.74 918.442,1335.74 915.5,1330.5C 916.524,1329.15 917.524,1327.81 918.5,1326.5 Z"/></g>
<g><path style="opacity:0.914" fill="#000000" d="M 335.5,1341.5 C 396.5,1341.5 457.5,1341.5 518.5,1341.5C 518.5,1343.17 518.5,1344.83 518.5,1346.5C 515.167,1346.5 511.833,1346.5 508.5,1346.5C 508.833,1362.51 508.499,1378.51 507.5,1394.5C 505.517,1393.02 503.684,1391.35 502,1389.5C 501.5,1375.17 501.333,1360.84 501.5,1346.5C 496.167,1346.5 490.833,1346.5 485.5,1346.5C 485.667,1362.5 485.5,1378.5 485,1394.5C 483,1392.5 481,1390.5 479,1388.5C 478.5,1380.51 478.334,1372.51 478.5,1364.5C 473.167,1364.5 467.833,1364.5 462.5,1364.5C 463.668,1381.72 460.502,1382.72 453,1367.5C 452.333,1365.17 452.333,1362.83 453,1360.5C 461.415,1359.52 469.915,1359.18 478.5,1359.5C 478.5,1355.17 478.5,1350.83 478.5,1346.5C 464.833,1346.5 451.167,1346.5 437.5,1346.5C 437.667,1362.5 437.5,1378.5 437,1394.5C 435.333,1392.83 433.667,1391.17 432,1389.5C 431.667,1384.17 431.333,1378.83 431,1373.5C 425.51,1378.77 419.01,1380.61 411.5,1379C 405.634,1374.21 403.968,1368.21 406.5,1361C 402.459,1360.83 398.459,1360.33 394.5,1359.5C 393.96,1358.25 393.293,1357.09 392.5,1356C 403.495,1355.5 414.495,1355.33 425.5,1355.5C 425.5,1357.17 425.5,1358.83 425.5,1360.5C 421.51,1361 417.51,1361.5 413.5,1362C 409.874,1364.25 408.707,1367.42 410,1371.5C 412.497,1373.48 415.331,1373.98 418.5,1373C 422.951,1370.22 427.117,1367.05 431,1363.5C 431.499,1357.84 431.666,1352.18 431.5,1346.5C 414.84,1347.78 398.173,1347.78 381.5,1346.5C 381.833,1362.18 381.499,1377.85 380.5,1393.5C 378.833,1392.17 377.167,1390.83 375.5,1389.5C 374.669,1382.86 374.169,1376.19 374,1369.5C 373.5,1370 373,1370.5 372.5,1371C 366.361,1372.45 360.861,1371.28 356,1367.5C 354.667,1368.83 353.333,1370.17 352,1371.5C 351.48,1373.29 351.813,1374.96 353,1376.5C 358.221,1381.53 362.387,1387.2 365.5,1393.5C 364.448,1393.65 363.448,1393.48 362.5,1393C 355.959,1386.13 349.793,1378.96 344,1371.5C 338.144,1362.38 340.644,1358.22 351.5,1359C 356.395,1355.34 356.728,1351.34 352.5,1347C 346.843,1346.5 341.176,1346.33 335.5,1346.5C 335.5,1344.83 335.5,1343.17 335.5,1341.5 Z M 360.5,1346.5 C 365.167,1346.5 369.833,1346.5 374.5,1346.5C 374.666,1351.18 374.499,1355.85 374,1360.5C 372.677,1364 370.177,1365.66 366.5,1365.5C 363.771,1365.71 361.438,1364.87 359.5,1363C 361.791,1357.67 362.124,1352.17 360.5,1346.5 Z"/></g>
<g><path style="opacity:0.895" fill="#000000" d="M 871.5,1341.5 C 902.167,1341.5 932.833,1341.5 963.5,1341.5C 963.5,1343.17 963.5,1344.83 963.5,1346.5C 959.445,1346.18 955.445,1346.51 951.5,1347.5C 953.068,1352.84 952.735,1358 950.5,1363C 952.609,1364.91 955.109,1365.74 958,1365.5C 963.537,1364.38 969.037,1362.88 974.5,1361C 980.223,1356.94 980.89,1352.27 976.5,1347C 969.559,1346.28 967.893,1348.95 971.5,1355C 972.793,1355.49 974.127,1355.66 975.5,1355.5C 975.5,1356.5 975.5,1357.5 975.5,1358.5C 967.318,1358.19 963.818,1353.86 965,1345.5C 966.018,1342.32 968.185,1340.98 971.5,1341.5C 978.707,1342.87 983.207,1347.2 985,1354.5C 985.76,1359.48 983.927,1363.32 979.5,1366C 977.336,1366.91 975.336,1368.08 973.5,1369.5C 979.921,1376.37 986.087,1376.04 992,1368.5C 994.239,1361.37 995.073,1354.03 994.5,1346.5C 989.151,1347.61 984.818,1346.11 981.5,1342C 1014.83,1341.5 1048.17,1341.33 1081.5,1341.5C 1081.5,1343.17 1081.5,1344.83 1081.5,1346.5C 1077.83,1346.5 1074.17,1346.5 1070.5,1346.5C 1070.67,1362.5 1070.5,1378.5 1070,1394.5C 1068,1392.5 1066,1390.5 1064,1388.5C 1063.5,1380.51 1063.33,1372.51 1063.5,1364.5C 1058.17,1364.5 1052.83,1364.5 1047.5,1364.5C 1048.67,1381.72 1045.5,1382.72 1038,1367.5C 1037.33,1365.17 1037.33,1362.83 1038,1360.5C 1046.41,1359.52 1054.91,1359.18 1063.5,1359.5C 1063.5,1355.17 1063.5,1350.83 1063.5,1346.5C 1049.83,1346.5 1036.17,1346.5 1022.5,1346.5C 1022.83,1362.51 1022.5,1378.51 1021.5,1394.5C 1019.52,1393.02 1017.68,1391.35 1016,1389.5C 1015.5,1375.17 1015.33,1360.84 1015.5,1346.5C 1010.83,1346.5 1006.17,1346.5 1001.5,1346.5C 1001.83,1362.51 1001.5,1378.51 1000.5,1394.5C 998.517,1393.02 996.684,1391.35 995,1389.5C 994.667,1384.83 994.333,1380.17 994,1375.5C 982.73,1382.52 973.73,1380.19 967,1368.5C 964.575,1370.92 961.575,1371.92 958,1371.5C 953.706,1371.85 950.04,1370.52 947,1367.5C 944.243,1369.2 942.91,1371.54 943,1374.5C 946.955,1380.12 951.288,1385.46 956,1390.5C 956.483,1391.45 956.649,1392.45 956.5,1393.5C 955.448,1393.65 954.448,1393.48 953.5,1393C 946.959,1386.13 940.793,1378.96 935,1371.5C 929.144,1362.38 931.644,1358.22 942.5,1359C 947.395,1355.34 947.728,1351.34 943.5,1347C 934.84,1346.5 926.173,1346.33 917.5,1346.5C 917.833,1362.18 917.499,1377.85 916.5,1393.5C 914.833,1392.17 913.167,1390.83 911.5,1389.5C 910.669,1382.86 910.169,1376.19 910,1369.5C 909.5,1370 909,1370.5 908.5,1371C 902.361,1372.45 896.861,1371.28 892,1367.5C 890.667,1368.83 889.333,1370.17 888,1371.5C 887.48,1373.29 887.813,1374.96 889,1376.5C 894.221,1381.53 898.387,1387.2 901.5,1393.5C 900.448,1393.65 899.448,1393.48 898.5,1393C 891.959,1386.13 885.793,1378.96 880,1371.5C 874.144,1362.38 876.644,1358.22 887.5,1359C 892.395,1355.34 892.728,1351.34 888.5,1347C 882.843,1346.5 877.176,1346.33 871.5,1346.5C 871.5,1344.83 871.5,1343.17 871.5,1341.5 Z M 896.5,1346.5 C 901.167,1346.5 905.833,1346.5 910.5,1346.5C 910.666,1351.18 910.499,1355.85 910,1360.5C 908.677,1364 906.177,1365.66 902.5,1365.5C 899.771,1365.71 897.438,1364.87 895.5,1363C 897.791,1357.67 898.124,1352.17 896.5,1346.5 Z"/></g>
<g><path style="opacity:0.909" fill="#000000" d="M 1118.5,1341.5 C 1128.08,1341.9 1133.92,1346.9 1136,1356.5C 1136.5,1359.82 1136.67,1363.15 1136.5,1366.5C 1141.5,1366.5 1146.5,1366.5 1151.5,1366.5C 1151.5,1359.83 1151.5,1353.17 1151.5,1346.5C 1148.31,1346.56 1145.14,1346.89 1142,1347.5C 1139.04,1346.96 1136.87,1345.29 1135.5,1342.5C 1214.83,1341.5 1294.16,1341.17 1373.5,1341.5C 1373.5,1343.17 1373.5,1344.83 1373.5,1346.5C 1369.45,1346.18 1365.45,1346.51 1361.5,1347.5C 1362.61,1351.78 1362.77,1356.11 1362,1360.5C 1359.2,1364.96 1356.04,1369.13 1352.5,1373C 1356.22,1379.39 1360.72,1385.23 1366,1390.5C 1366.48,1391.45 1366.65,1392.45 1366.5,1393.5C 1365.45,1393.65 1364.45,1393.48 1363.5,1393C 1356.96,1386.13 1350.79,1378.96 1345,1371.5C 1339.14,1362.38 1341.64,1358.22 1352.5,1359C 1357.39,1355.34 1357.73,1351.34 1353.5,1347C 1344.84,1346.5 1336.17,1346.33 1327.5,1346.5C 1327.67,1362.5 1327.5,1378.5 1327,1394.5C 1325.33,1392.83 1323.67,1391.17 1322,1389.5C 1321.67,1384.17 1321.33,1378.83 1321,1373.5C 1312.11,1376.58 1305.11,1374.25 1300,1366.5C 1298.58,1359.95 1298.08,1353.28 1298.5,1346.5C 1293.83,1346.5 1289.17,1346.5 1284.5,1346.5C 1284.83,1362.51 1284.5,1378.51 1283.5,1394.5C 1281.52,1393.02 1279.68,1391.35 1278,1389.5C 1277.83,1380.81 1277.33,1372.15 1276.5,1363.5C 1272.1,1366.31 1268.6,1369.97 1266,1374.5C 1263.87,1373.37 1262.03,1371.87 1260.5,1370C 1263.96,1363.44 1261.96,1360.78 1254.5,1362C 1251.53,1364.11 1250.36,1366.94 1251,1370.5C 1253.22,1376.06 1256.89,1380.39 1262,1383.5C 1262.48,1384.45 1262.65,1385.45 1262.5,1386.5C 1253.62,1383.46 1247.46,1377.46 1244,1368.5C 1241.86,1360.42 1244.86,1356.08 1253,1355.5C 1258.41,1355.62 1262.58,1357.96 1265.5,1362.5C 1269.01,1360.25 1272.67,1358.25 1276.5,1356.5C 1277.49,1353.23 1277.82,1349.9 1277.5,1346.5C 1261.17,1346.5 1244.83,1346.5 1228.5,1346.5C 1228.67,1362.5 1228.5,1378.5 1228,1394.5C 1226,1392.5 1224,1390.5 1222,1388.5C 1221.5,1374.5 1221.33,1360.5 1221.5,1346.5C 1217.17,1346.5 1212.83,1346.5 1208.5,1346.5C 1208.82,1357.08 1208.49,1367.58 1207.5,1378C 1205.3,1378.82 1203.47,1378.32 1202,1376.5C 1199.58,1372.66 1196.91,1368.99 1194,1365.5C 1193.51,1363.87 1193.34,1362.2 1193.5,1360.5C 1196.17,1360.5 1198.83,1360.5 1201.5,1360.5C 1201.5,1355.83 1201.5,1351.17 1201.5,1346.5C 1194.17,1346.5 1186.83,1346.5 1179.5,1346.5C 1179.83,1362.51 1179.5,1378.51 1178.5,1394.5C 1176.52,1393.02 1174.68,1391.35 1173,1389.5C 1172.5,1375.17 1172.33,1360.84 1172.5,1346.5C 1167.5,1346.5 1162.5,1346.5 1157.5,1346.5C 1157.67,1362.5 1157.5,1378.5 1157,1394.5C 1155.33,1392.83 1153.67,1391.17 1152,1389.5C 1151.5,1383.84 1151.33,1378.18 1151.5,1372.5C 1146.5,1372.5 1141.5,1372.5 1136.5,1372.5C 1136.58,1375.27 1136.08,1377.94 1135,1380.5C 1133.27,1381.58 1131.44,1381.74 1129.5,1381C 1127,1377.83 1124.5,1374.67 1122,1371.5C 1121.51,1369.87 1121.34,1368.2 1121.5,1366.5C 1124.5,1366.5 1127.5,1366.5 1130.5,1366.5C 1130.5,1363.83 1130.5,1361.17 1130.5,1358.5C 1117.73,1358.75 1113.73,1353.09 1118.5,1341.5 Z M 1121.5,1345.5 C 1127.98,1345.65 1130.98,1348.98 1130.5,1355.5C 1122.5,1356.5 1119.5,1353.17 1121.5,1345.5 Z M 1304.5,1346.5 C 1310.17,1346.5 1315.83,1346.5 1321.5,1346.5C 1321.67,1352.18 1321.5,1357.84 1321,1363.5C 1317.61,1369.47 1312.77,1370.97 1306.5,1368C 1305.87,1367.25 1305.37,1366.42 1305,1365.5C 1304.5,1359.18 1304.33,1352.84 1304.5,1346.5 Z"/></g>
<g><path style="opacity:0.778" fill="#000000" d="M 372.5,1396.5 C 377.316,1395.35 382.316,1395.18 387.5,1396C 392.534,1400.7 397.2,1405.7 401.5,1411C 400.584,1411.37 399.75,1411.87 399,1412.5C 395.167,1408.67 391.333,1404.83 387.5,1401C 384.167,1400.67 380.833,1400.33 377.5,1400C 376.211,1398.2 374.544,1397.03 372.5,1396.5 Z"/></g>
<g><path style="opacity:0.812" fill="#000000" d="M 1321.5,1396.5 C 1335.45,1393.3 1340.11,1398.47 1335.5,1412C 1324.75,1415.42 1315.25,1413.25 1307,1405.5C 1306.57,1404.4 1307.07,1403.73 1308.5,1403.5C 1315.54,1408.01 1323.21,1409.51 1331.5,1408C 1333.52,1406.44 1333.85,1404.61 1332.5,1402.5C 1329.55,1401.51 1326.55,1400.68 1323.5,1400C 1322.92,1398.7 1322.25,1397.53 1321.5,1396.5 Z"/></g>
<g><path style="opacity:0.931" fill="#000000" d="M 597.5,1429.5 C 601.514,1429.33 605.514,1429.5 609.5,1430C 610.451,1433.06 610.784,1436.22 610.5,1439.5C 603.357,1437.3 600.024,1439.97 600.5,1447.5C 603.167,1447.5 605.833,1447.5 608.5,1447.5C 608.5,1450.17 608.5,1452.83 608.5,1455.5C 605.833,1455.5 603.167,1455.5 600.5,1455.5C 600.5,1465.17 600.5,1474.83 600.5,1484.5C 596.5,1484.5 592.5,1484.5 588.5,1484.5C 588.5,1474.83 588.5,1465.17 588.5,1455.5C 586.5,1455.5 584.5,1455.5 582.5,1455.5C 582.5,1452.83 582.5,1450.17 582.5,1447.5C 584.5,1447.5 586.5,1447.5 588.5,1447.5C 587.345,1439.24 590.345,1433.24 597.5,1429.5 Z"/></g>
<g><path style="opacity:0.931" fill="#000000" d="M 711.5,1429.5 C 715.514,1429.33 719.514,1429.5 723.5,1430C 724.451,1433.06 724.784,1436.22 724.5,1439.5C 717.357,1437.3 714.024,1439.97 714.5,1447.5C 717.167,1447.5 719.833,1447.5 722.5,1447.5C 722.5,1450.17 722.5,1452.83 722.5,1455.5C 719.833,1455.5 717.167,1455.5 714.5,1455.5C 714.5,1465.17 714.5,1474.83 714.5,1484.5C 710.5,1484.5 706.5,1484.5 702.5,1484.5C 702.5,1474.83 702.5,1465.17 702.5,1455.5C 700.5,1455.5 698.5,1455.5 696.5,1455.5C 696.5,1452.83 696.5,1450.17 696.5,1447.5C 698.5,1447.5 700.5,1447.5 702.5,1447.5C 701.345,1439.24 704.345,1433.24 711.5,1429.5 Z"/></g>
<g><path style="opacity:0.934" fill="#000000" d="M 94.5,1430.5 C 98.5,1430.5 102.5,1430.5 106.5,1430.5C 106.5,1448.5 106.5,1466.5 106.5,1484.5C 102.5,1484.5 98.5,1484.5 94.5,1484.5C 94.6495,1483.45 94.4828,1482.45 94,1481.5C 91.464,1484.77 88.1306,1486.1 84,1485.5C 77.2017,1485.77 72.535,1482.77 70,1476.5C 67.0249,1466.85 68.5249,1458.02 74.5,1450C 79.3237,1446.68 84.657,1445.68 90.5,1447C 91.9308,1447.47 93.0975,1448.3 94,1449.5C 94.4995,1443.18 94.6662,1436.84 94.5,1430.5 Z M 86.5,1455.5 C 92.0395,1456.21 95.0395,1459.37 95.5,1465C 95.5996,1470.66 93.0996,1474.49 88,1476.5C 83.0351,1475.03 80.5351,1471.7 80.5,1466.5C 80.7154,1461.73 82.7154,1458.06 86.5,1455.5 Z"/></g>
<g><path style="opacity:0.893" fill="#000000" d="M 117.5,1430.5 C 124.827,1429.33 127.994,1432.33 127,1439.5C 123.341,1443.12 119.341,1443.45 115,1440.5C 113.08,1436.43 113.913,1433.1 117.5,1430.5 Z"/></g>
<g><path style="opacity:0.893" fill="#000000" d="M 366.5,1430.5 C 373.827,1429.33 376.994,1432.33 376,1439.5C 372.341,1443.12 368.341,1443.45 364,1440.5C 362.08,1436.43 362.913,1433.1 366.5,1430.5 Z"/></g>
<g><path style="opacity:0.893" fill="#000000" d="M 936.5,1430.5 C 943.827,1429.33 946.994,1432.33 946,1439.5C 942.341,1443.12 938.341,1443.45 934,1440.5C 932.08,1436.43 932.913,1433.1 936.5,1430.5 Z"/></g>
<g><path style="opacity:0.927" fill="#000000" d="M 1170.5,1430.5 C 1174.5,1430.5 1178.5,1430.5 1182.5,1430.5C 1182.33,1437.51 1182.5,1444.51 1183,1451.5C 1188.78,1445.84 1195.28,1445 1202.5,1449C 1203.46,1450.42 1204.29,1451.92 1205,1453.5C 1206.37,1463.78 1206.87,1474.11 1206.5,1484.5C 1202.5,1484.5 1198.5,1484.5 1194.5,1484.5C 1194.67,1476.83 1194.5,1469.16 1194,1461.5C 1193.07,1456.12 1190.24,1454.62 1185.5,1457C 1184.11,1458.17 1183.27,1459.67 1183,1461.5C 1182.5,1469.16 1182.33,1476.83 1182.5,1484.5C 1178.5,1484.5 1174.5,1484.5 1170.5,1484.5C 1170.5,1466.5 1170.5,1448.5 1170.5,1430.5 Z"/></g>
<g><path style="opacity:0.928" fill="#000000" d="M 1301.5,1430.5 C 1305.5,1430.5 1309.5,1430.5 1313.5,1430.5C 1313.5,1448.5 1313.5,1466.5 1313.5,1484.5C 1309.5,1484.5 1305.5,1484.5 1301.5,1484.5C 1301.5,1466.5 1301.5,1448.5 1301.5,1430.5 Z"/></g>
<g><path style="opacity:0.877" fill="#000000" d="M 4.5,1433.5 C 8.83333,1433.5 13.1667,1433.5 17.5,1433.5C 17.5,1450.5 17.5,1467.5 17.5,1484.5C 13.1667,1484.5 8.83333,1484.5 4.5,1484.5C 4.5,1467.5 4.5,1450.5 4.5,1433.5 Z"/></g>
<g><path style="opacity:0.877" fill="#000000" d="M 238.5,1433.5 C 242.833,1433.5 247.167,1433.5 251.5,1433.5C 251.5,1450.5 251.5,1467.5 251.5,1484.5C 247.167,1484.5 242.833,1484.5 238.5,1484.5C 238.5,1467.5 238.5,1450.5 238.5,1433.5 Z"/></g>
<g><path style="opacity:0.877" fill="#000000" d="M 634.5,1433.5 C 638.833,1433.5 643.167,1433.5 647.5,1433.5C 647.5,1450.5 647.5,1467.5 647.5,1484.5C 643.167,1484.5 638.833,1484.5 634.5,1484.5C 634.5,1467.5 634.5,1450.5 634.5,1433.5 Z"/></g>
<g><path style="opacity:0.958" fill="#000000" d="M 1058.5,1433.5 C 1072.17,1433.5 1085.83,1433.5 1099.5,1433.5C 1099.5,1436.5 1099.5,1439.5 1099.5,1442.5C 1094.5,1442.5 1089.5,1442.5 1084.5,1442.5C 1084.5,1456.5 1084.5,1470.5 1084.5,1484.5C 1080.5,1484.5 1076.5,1484.5 1072.5,1484.5C 1072.5,1470.5 1072.5,1456.5 1072.5,1442.5C 1067.83,1442.5 1063.17,1442.5 1058.5,1442.5C 1058.5,1439.5 1058.5,1436.5 1058.5,1433.5 Z"/></g>
<g><path style="opacity:0.923" fill="#000000" d="M 346.5,1436.5 C 347.833,1436.5 349.167,1436.5 350.5,1436.5C 350.5,1440.17 350.5,1443.83 350.5,1447.5C 353.167,1447.5 355.833,1447.5 358.5,1447.5C 358.5,1450.17 358.5,1452.83 358.5,1455.5C 355.833,1455.5 353.167,1455.5 350.5,1455.5C 350.334,1461.84 350.5,1468.18 351,1474.5C 353.245,1476.79 355.745,1477.12 358.5,1475.5C 358.817,1478.57 358.484,1481.57 357.5,1484.5C 352.463,1485.88 347.463,1485.71 342.5,1484C 340.959,1482.42 339.792,1480.59 339,1478.5C 338.5,1470.84 338.334,1463.17 338.5,1455.5C 336.5,1455.5 334.5,1455.5 332.5,1455.5C 332.5,1452.83 332.5,1450.17 332.5,1447.5C 334.5,1447.5 336.5,1447.5 338.5,1447.5C 338.336,1444.81 338.503,1442.15 339,1439.5C 341.672,1438.72 344.172,1437.72 346.5,1436.5 Z"/></g>
<g><path style="opacity:0.923" fill="#000000" d="M 395.5,1436.5 C 396.833,1436.5 398.167,1436.5 399.5,1436.5C 399.5,1440.17 399.5,1443.83 399.5,1447.5C 402.167,1447.5 404.833,1447.5 407.5,1447.5C 407.5,1450.17 407.5,1452.83 407.5,1455.5C 404.833,1455.5 402.167,1455.5 399.5,1455.5C 399.334,1461.84 399.5,1468.18 400,1474.5C 402.245,1476.79 404.745,1477.12 407.5,1475.5C 407.817,1478.57 407.484,1481.57 406.5,1484.5C 401.463,1485.88 396.463,1485.71 391.5,1484C 389.959,1482.42 388.792,1480.59 388,1478.5C 387.5,1470.84 387.334,1463.17 387.5,1455.5C 385.5,1455.5 383.5,1455.5 381.5,1455.5C 381.5,1452.83 381.5,1450.17 381.5,1447.5C 383.5,1447.5 385.5,1447.5 387.5,1447.5C 387.336,1444.81 387.503,1442.15 388,1439.5C 390.672,1438.72 393.172,1437.72 395.5,1436.5 Z"/></g>
<g><path style="opacity:0.923" fill="#000000" d="M 466.5,1436.5 C 467.833,1436.5 469.167,1436.5 470.5,1436.5C 470.5,1440.17 470.5,1443.83 470.5,1447.5C 473.167,1447.5 475.833,1447.5 478.5,1447.5C 478.5,1450.17 478.5,1452.83 478.5,1455.5C 475.833,1455.5 473.167,1455.5 470.5,1455.5C 470.334,1461.84 470.5,1468.18 471,1474.5C 473.245,1476.79 475.745,1477.12 478.5,1475.5C 478.817,1478.57 478.484,1481.57 477.5,1484.5C 472.463,1485.88 467.463,1485.71 462.5,1484C 460.959,1482.42 459.792,1480.59 459,1478.5C 458.5,1470.84 458.334,1463.17 458.5,1455.5C 456.5,1455.5 454.5,1455.5 452.5,1455.5C 452.5,1452.83 452.5,1450.17 452.5,1447.5C 454.5,1447.5 456.5,1447.5 458.5,1447.5C 458.336,1444.81 458.503,1442.15 459,1439.5C 461.672,1438.72 464.172,1437.72 466.5,1436.5 Z"/></g>
<g><path style="opacity:0.923" fill="#000000" d="M 916.5,1436.5 C 917.833,1436.5 919.167,1436.5 920.5,1436.5C 920.5,1440.17 920.5,1443.83 920.5,1447.5C 923.167,1447.5 925.833,1447.5 928.5,1447.5C 928.5,1450.17 928.5,1452.83 928.5,1455.5C 925.833,1455.5 923.167,1455.5 920.5,1455.5C 920.334,1461.84 920.5,1468.18 921,1474.5C 923.245,1476.79 925.745,1477.12 928.5,1475.5C 928.817,1478.57 928.484,1481.57 927.5,1484.5C 922.463,1485.88 917.463,1485.71 912.5,1484C 910.959,1482.42 909.792,1480.59 909,1478.5C 908.5,1470.84 908.334,1463.17 908.5,1455.5C 906.5,1455.5 904.5,1455.5 902.5,1455.5C 902.5,1452.83 902.5,1450.17 902.5,1447.5C 904.5,1447.5 906.5,1447.5 908.5,1447.5C 908.336,1444.81 908.503,1442.15 909,1439.5C 911.672,1438.72 914.172,1437.72 916.5,1436.5 Z"/></g>
<g><path style="opacity:0.923" fill="#000000" d="M 44.5,1446.5 C 48.1817,1446.33 51.8484,1446.5 55.5,1447C 58,1448.17 59.8333,1450 61,1452.5C 62.4027,1463.1 62.9027,1473.77 62.5,1484.5C 58.5,1484.5 54.5,1484.5 50.5,1484.5C 50.9137,1475.42 50.4137,1466.42 49,1457.5C 44.0984,1454.61 40.7651,1455.94 39,1461.5C 38.5003,1469.16 38.3336,1476.83 38.5,1484.5C 34.5,1484.5 30.5,1484.5 26.5,1484.5C 26.5,1472.17 26.5,1459.83 26.5,1447.5C 30.5,1447.5 34.5,1447.5 38.5,1447.5C 38.3433,1448.87 38.51,1450.21 39,1451.5C 40.7297,1449.6 42.563,1447.93 44.5,1446.5 Z"/></g>
<g><path style="opacity:0.924" fill="#000000" d="M 143.5,1446.5 C 148.179,1446.33 152.845,1446.5 157.5,1447C 162.099,1448.6 164.932,1451.76 166,1456.5C 166.5,1465.83 166.666,1475.16 166.5,1484.5C 162.833,1484.5 159.167,1484.5 155.5,1484.5C 155.657,1483.13 155.49,1481.79 155,1480.5C 153.891,1482.81 152.057,1484.31 149.5,1485C 136.498,1487 131.331,1481.5 134,1468.5C 135.167,1466 137,1464.17 139.5,1463C 144.863,1461.94 150.196,1460.77 155.5,1459.5C 154.556,1456.27 152.389,1454.61 149,1454.5C 144.87,1454.99 141.037,1456.32 137.5,1458.5C 136.345,1455.55 136.179,1452.55 137,1449.5C 139.294,1448.58 141.461,1447.58 143.5,1446.5 Z M 154.5,1466.5 C 155.937,1471.63 154.104,1475.29 149,1477.5C 144.794,1476.41 143.461,1473.74 145,1469.5C 148.134,1468.09 151.301,1467.09 154.5,1466.5 Z"/></g>
<g><path style="opacity:0.923" fill="#000000" d="M 192.5,1446.5 C 196.182,1446.33 199.848,1446.5 203.5,1447C 206,1448.17 207.833,1450 209,1452.5C 210.403,1463.1 210.903,1473.77 210.5,1484.5C 206.5,1484.5 202.5,1484.5 198.5,1484.5C 198.914,1475.42 198.414,1466.42 197,1457.5C 192.098,1454.61 188.765,1455.94 187,1461.5C 186.5,1469.16 186.334,1476.83 186.5,1484.5C 182.5,1484.5 178.5,1484.5 174.5,1484.5C 174.5,1472.17 174.5,1459.83 174.5,1447.5C 178.5,1447.5 182.5,1447.5 186.5,1447.5C 186.343,1448.87 186.51,1450.21 187,1451.5C 188.73,1449.6 190.563,1447.93 192.5,1446.5 Z"/></g>
<g><path style="opacity:0.923" fill="#000000" d="M 278.5,1446.5 C 282.182,1446.33 285.848,1446.5 289.5,1447C 292,1448.17 293.833,1450 295,1452.5C 296.403,1463.1 296.903,1473.77 296.5,1484.5C 292.5,1484.5 288.5,1484.5 284.5,1484.5C 284.914,1475.42 284.414,1466.42 283,1457.5C 278.098,1454.61 274.765,1455.94 273,1461.5C 272.5,1469.16 272.334,1476.83 272.5,1484.5C 268.5,1484.5 264.5,1484.5 260.5,1484.5C 260.5,1472.17 260.5,1459.83 260.5,1447.5C 264.5,1447.5 268.5,1447.5 272.5,1447.5C 272.343,1448.87 272.51,1450.21 273,1451.5C 274.73,1449.6 276.563,1447.93 278.5,1446.5 Z"/></g>
<g><path style="opacity:0.919" fill="#000000" d="M 311.5,1446.5 C 317.212,1446.31 322.879,1446.65 328.5,1447.5C 328.817,1450.57 328.484,1453.57 327.5,1456.5C 323.237,1454.68 318.903,1454.34 314.5,1455.5C 314.238,1456.98 314.571,1458.31 315.5,1459.5C 320.361,1461.18 324.861,1463.51 329,1466.5C 333.222,1476.06 330.388,1482.23 320.5,1485C 314.472,1485.64 308.472,1485.47 302.5,1484.5C 302.18,1481.1 302.513,1477.77 303.5,1474.5C 306.572,1475.8 309.738,1476.8 313,1477.5C 315.644,1477.35 317.811,1476.35 319.5,1474.5C 319.023,1473.52 318.357,1472.69 317.5,1472C 311.204,1470.94 306.371,1467.78 303,1462.5C 301.411,1454.67 304.245,1449.34 311.5,1446.5 Z"/></g>
<g><path style="opacity:0.932" fill="#000000" d="M 494.5,1446.5 C 511.307,1444.97 518.64,1452.64 516.5,1469.5C 508.804,1469.17 501.138,1469.5 493.5,1470.5C 495.662,1475.95 499.662,1478.12 505.5,1477C 508,1476.63 510.333,1475.79 512.5,1474.5C 513.833,1477.5 513.833,1480.5 512.5,1483.5C 488.959,1490.12 479.126,1481.45 483,1457.5C 485.437,1452.23 489.271,1448.56 494.5,1446.5 Z M 498.5,1454.5 C 503.601,1454.68 505.934,1457.35 505.5,1462.5C 501.445,1462.82 497.445,1462.49 493.5,1461.5C 494.466,1458.53 496.133,1456.2 498.5,1454.5 Z"/></g>
<g><path style="opacity:0.926" fill="#000000" d="M 554.5,1446.5 C 574.932,1445.1 583.099,1454.43 579,1474.5C 576.768,1479.73 572.935,1483.23 567.5,1485C 546.548,1487.38 538.048,1478.21 542,1457.5C 544.505,1451.82 548.671,1448.16 554.5,1446.5 Z M 558.5,1455.5 C 564.807,1455.81 568.141,1459.14 568.5,1465.5C 568.876,1471.45 566.209,1475.12 560.5,1476.5C 555.028,1475.19 552.362,1471.69 552.5,1466C 552.39,1461.17 554.39,1457.67 558.5,1455.5 Z"/></g>
<g><path style="opacity:0.923" fill="#000000" d="M 674.5,1446.5 C 678.182,1446.33 681.848,1446.5 685.5,1447C 688,1448.17 689.833,1450 691,1452.5C 692.403,1463.1 692.903,1473.77 692.5,1484.5C 688.5,1484.5 684.5,1484.5 680.5,1484.5C 680.914,1475.42 680.414,1466.42 679,1457.5C 674.098,1454.61 670.765,1455.94 669,1461.5C 668.5,1469.16 668.334,1476.83 668.5,1484.5C 664.5,1484.5 660.5,1484.5 656.5,1484.5C 656.5,1472.17 656.5,1459.83 656.5,1447.5C 660.5,1447.5 664.5,1447.5 668.5,1447.5C 668.343,1448.87 668.51,1450.21 669,1451.5C 670.73,1449.6 672.563,1447.93 674.5,1446.5 Z"/></g>
<g><path style="opacity:0.926" fill="#000000" d="M 739.5,1446.5 C 759.932,1445.1 768.099,1454.43 764,1474.5C 761.768,1479.73 757.935,1483.23 752.5,1485C 731.548,1487.38 723.048,1478.21 727,1457.5C 729.505,1451.82 733.671,1448.16 739.5,1446.5 Z M 743.5,1455.5 C 749.807,1455.81 753.141,1459.14 753.5,1465.5C 753.876,1471.45 751.209,1475.12 745.5,1476.5C 740.028,1475.19 737.362,1471.69 737.5,1466C 737.39,1461.17 739.39,1457.67 743.5,1455.5 Z"/></g>
<g><path style="opacity:0.91" fill="#000000" d="M 788.5,1446.5 C 791.167,1446.5 793.833,1446.5 796.5,1446.5C 796.5,1450.17 796.5,1453.83 796.5,1457.5C 791.907,1455.53 788.074,1456.53 785,1460.5C 783.599,1468.41 783.099,1476.41 783.5,1484.5C 779.5,1484.5 775.5,1484.5 771.5,1484.5C 771.5,1472.17 771.5,1459.83 771.5,1447.5C 775.5,1447.5 779.5,1447.5 783.5,1447.5C 783.343,1448.87 783.51,1450.21 784,1451.5C 785.025,1449.31 786.525,1447.65 788.5,1446.5 Z"/></g>
<g><path style="opacity:0.928" fill="#000000" d="M 819.5,1446.5 C 825.542,1445.37 830.542,1447.04 834.5,1451.5C 840.085,1446.41 846.419,1445.24 853.5,1448C 855.81,1449.64 857.31,1451.8 858,1454.5C 858.5,1464.49 858.666,1474.49 858.5,1484.5C 854.5,1484.5 850.5,1484.5 846.5,1484.5C 846.666,1475.83 846.5,1467.16 846,1458.5C 841.36,1454.47 838.026,1455.47 836,1461.5C 835.5,1469.16 835.334,1476.83 835.5,1484.5C 831.5,1484.5 827.5,1484.5 823.5,1484.5C 823.666,1475.83 823.5,1467.16 823,1458.5C 818.36,1454.47 815.026,1455.47 813,1461.5C 812.5,1469.16 812.334,1476.83 812.5,1484.5C 808.5,1484.5 804.5,1484.5 800.5,1484.5C 800.5,1472.17 800.5,1459.83 800.5,1447.5C 804.5,1447.5 808.5,1447.5 812.5,1447.5C 812.343,1448.87 812.51,1450.21 813,1451.5C 814.965,1449.45 817.132,1447.78 819.5,1446.5 Z"/></g>
<g><path style="opacity:0.924" fill="#000000" d="M 874.5,1446.5 C 879.179,1446.33 883.845,1446.5 888.5,1447C 893.099,1448.6 895.932,1451.76 897,1456.5C 897.5,1465.83 897.666,1475.16 897.5,1484.5C 893.833,1484.5 890.167,1484.5 886.5,1484.5C 886.657,1483.13 886.49,1481.79 886,1480.5C 884.891,1482.81 883.057,1484.31 880.5,1485C 867.498,1487 862.331,1481.5 865,1468.5C 866.167,1466 868,1464.17 870.5,1463C 875.863,1461.94 881.196,1460.77 886.5,1459.5C 885.556,1456.27 883.389,1454.61 880,1454.5C 875.87,1454.99 872.037,1456.32 868.5,1458.5C 867.345,1455.55 867.179,1452.55 868,1449.5C 870.294,1448.58 872.461,1447.58 874.5,1446.5 Z M 885.5,1466.5 C 886.937,1471.63 885.104,1475.29 880,1477.5C 875.794,1476.41 874.461,1473.74 876,1469.5C 879.134,1468.09 882.301,1467.09 885.5,1466.5 Z"/></g>
<g><path style="opacity:0.926" fill="#000000" d="M 965.5,1446.5 C 985.932,1445.1 994.099,1454.43 990,1474.5C 987.768,1479.73 983.935,1483.23 978.5,1485C 957.548,1487.38 949.048,1478.21 953,1457.5C 955.505,1451.82 959.671,1448.16 965.5,1446.5 Z M 969.5,1455.5 C 975.807,1455.81 979.141,1459.14 979.5,1465.5C 979.876,1471.45 977.209,1475.12 971.5,1476.5C 966.028,1475.19 963.362,1471.69 963.5,1466C 963.39,1461.17 965.39,1457.67 969.5,1455.5 Z"/></g>
<g><path style="opacity:0.923" fill="#000000" d="M 1015.5,1446.5 C 1019.18,1446.33 1022.85,1446.5 1026.5,1447C 1029,1448.17 1030.83,1450 1032,1452.5C 1033.4,1463.1 1033.9,1473.77 1033.5,1484.5C 1029.5,1484.5 1025.5,1484.5 1021.5,1484.5C 1021.91,1475.42 1021.41,1466.42 1020,1457.5C 1015.1,1454.61 1011.77,1455.94 1010,1461.5C 1009.5,1469.16 1009.33,1476.83 1009.5,1484.5C 1005.5,1484.5 1001.5,1484.5 997.5,1484.5C 997.5,1472.17 997.5,1459.83 997.5,1447.5C 1001.5,1447.5 1005.5,1447.5 1009.5,1447.5C 1009.34,1448.87 1009.51,1450.21 1010,1451.5C 1011.73,1449.6 1013.56,1447.93 1015.5,1446.5 Z"/></g>
<g><path style="opacity:0.932" fill="#000000" d="M 1108.5,1446.5 C 1125.31,1444.97 1132.64,1452.64 1130.5,1469.5C 1122.8,1469.17 1115.14,1469.5 1107.5,1470.5C 1109.66,1475.95 1113.66,1478.12 1119.5,1477C 1122,1476.63 1124.33,1475.79 1126.5,1474.5C 1127.83,1477.5 1127.83,1480.5 1126.5,1483.5C 1102.96,1490.12 1093.13,1481.45 1097,1457.5C 1099.44,1452.23 1103.27,1448.56 1108.5,1446.5 Z M 1112.5,1454.5 C 1117.6,1454.68 1119.93,1457.35 1119.5,1462.5C 1115.45,1462.82 1111.45,1462.49 1107.5,1461.5C 1108.47,1458.53 1110.13,1456.2 1112.5,1454.5 Z"/></g>
<g><path style="opacity:0.93" fill="#000000" d="M 1148.5,1446.5 C 1153.56,1446.22 1158.56,1446.55 1163.5,1447.5C 1164.66,1451.12 1164.83,1454.79 1164,1458.5C 1154.9,1453.42 1149.07,1455.92 1146.5,1466C 1146.6,1472.6 1149.93,1476.1 1156.5,1476.5C 1159.11,1476.08 1161.44,1475.08 1163.5,1473.5C 1164.66,1476.78 1164.82,1480.12 1164,1483.5C 1153.57,1487.69 1144.57,1485.69 1137,1477.5C 1132.88,1467.9 1134.04,1459.06 1140.5,1451C 1143.1,1449.2 1145.77,1447.7 1148.5,1446.5 Z"/></g>
<g><path style="opacity:0.923" fill="#000000" d="M 1232.5,1446.5 C 1236.18,1446.33 1239.85,1446.5 1243.5,1447C 1246,1448.17 1247.83,1450 1249,1452.5C 1250.4,1463.1 1250.9,1473.77 1250.5,1484.5C 1246.5,1484.5 1242.5,1484.5 1238.5,1484.5C 1238.91,1475.42 1238.41,1466.42 1237,1457.5C 1232.1,1454.61 1228.77,1455.94 1227,1461.5C 1226.5,1469.16 1226.33,1476.83 1226.5,1484.5C 1222.5,1484.5 1218.5,1484.5 1214.5,1484.5C 1214.5,1472.17 1214.5,1459.83 1214.5,1447.5C 1218.5,1447.5 1222.5,1447.5 1226.5,1447.5C 1226.34,1448.87 1226.51,1450.21 1227,1451.5C 1228.73,1449.6 1230.56,1447.93 1232.5,1446.5 Z"/></g>
<g><path style="opacity:0.926" fill="#000000" d="M 1269.5,1446.5 C 1289.93,1445.1 1298.1,1454.43 1294,1474.5C 1291.77,1479.73 1287.94,1483.23 1282.5,1485C 1261.55,1487.38 1253.05,1478.21 1257,1457.5C 1259.5,1451.82 1263.67,1448.16 1269.5,1446.5 Z M 1273.5,1455.5 C 1279.81,1455.81 1283.14,1459.14 1283.5,1465.5C 1283.88,1471.45 1281.21,1475.12 1275.5,1476.5C 1270.03,1475.19 1267.36,1471.69 1267.5,1466C 1267.39,1461.17 1269.39,1457.67 1273.5,1455.5 Z"/></g>
<g><path style="opacity:0.926" fill="#000000" d="M 1334.5,1446.5 C 1354.93,1445.1 1363.1,1454.43 1359,1474.5C 1356.77,1479.73 1352.94,1483.23 1347.5,1485C 1326.55,1487.38 1318.05,1478.21 1322,1457.5C 1324.5,1451.82 1328.67,1448.16 1334.5,1446.5 Z M 1338.5,1455.5 C 1344.81,1455.81 1348.14,1459.14 1348.5,1465.5C 1348.88,1471.45 1346.21,1475.12 1340.5,1476.5C 1335.03,1475.19 1332.36,1471.69 1332.5,1466C 1332.39,1461.17 1334.39,1457.67 1338.5,1455.5 Z"/></g>
<g><path style="opacity:0.928" fill="#000000" d="M 1375.5,1446.5 C 1379.18,1446.33 1382.85,1446.5 1386.5,1447C 1387.93,1447.47 1389.1,1448.3 1390,1449.5C 1393.84,1447.61 1398,1446.94 1402.5,1447.5C 1402.67,1461.17 1402.5,1474.84 1402,1488.5C 1400.06,1496.1 1395.23,1500.6 1387.5,1502C 1382.17,1502.67 1376.83,1502.67 1371.5,1502C 1370.23,1501.69 1369.07,1501.19 1368,1500.5C 1367.5,1497.52 1367.34,1494.52 1367.5,1491.5C 1372.32,1493.46 1377.32,1494.29 1382.5,1494C 1388.72,1492.05 1391.22,1487.88 1390,1481.5C 1388.79,1483.05 1387.29,1484.22 1385.5,1485C 1371.47,1487.3 1364.47,1481.3 1364.5,1467C 1364.43,1457.97 1368.09,1451.14 1375.5,1446.5 Z M 1382.5,1455.5 C 1388.04,1456.21 1391.04,1459.37 1391.5,1465C 1391.6,1470.66 1389.1,1474.49 1384,1476.5C 1379.04,1475.03 1376.54,1471.7 1376.5,1466.5C 1376.72,1461.73 1378.72,1458.06 1382.5,1455.5 Z"/></g>
<g><path style="opacity:0.928" fill="#000000" d="M 114.5,1447.5 C 118.5,1447.5 122.5,1447.5 126.5,1447.5C 126.5,1459.83 126.5,1472.17 126.5,1484.5C 122.5,1484.5 118.5,1484.5 114.5,1484.5C 114.5,1472.17 114.5,1459.83 114.5,1447.5 Z"/></g>
<g><path style="opacity:0.928" fill="#000000" d="M 363.5,1447.5 C 367.5,1447.5 371.5,1447.5 375.5,1447.5C 375.5,1459.83 375.5,1472.17 375.5,1484.5C 371.5,1484.5 367.5,1484.5 363.5,1484.5C 363.5,1472.17 363.5,1459.83 363.5,1447.5 Z"/></g>
<g><path style="opacity:0.932" fill="#000000" d="M 412.5,1447.5 C 416.5,1447.5 420.5,1447.5 424.5,1447.5C 424.334,1456.17 424.5,1464.84 425,1473.5C 428.829,1477.66 432.163,1477.33 435,1472.5C 435.5,1464.17 435.666,1455.84 435.5,1447.5C 439.5,1447.5 443.5,1447.5 447.5,1447.5C 447.5,1459.83 447.5,1472.17 447.5,1484.5C 443.5,1484.5 439.5,1484.5 435.5,1484.5C 435.649,1483.45 435.483,1482.45 435,1481.5C 430.483,1485.24 425.316,1486.41 419.5,1485C 416.272,1483.44 414.105,1480.94 413,1477.5C 412.5,1467.51 412.334,1457.51 412.5,1447.5 Z"/></g>
<g><path style="opacity:0.928" fill="#000000" d="M 933.5,1447.5 C 937.5,1447.5 941.5,1447.5 945.5,1447.5C 945.5,1459.83 945.5,1472.17 945.5,1484.5C 941.5,1484.5 937.5,1484.5 933.5,1484.5C 933.5,1472.17 933.5,1459.83 933.5,1447.5 Z"/></g>
<g><path style="opacity:0.911" fill="#000000" d="M 1446.5,1447.5 C 1446.5,1448.5 1446.5,1449.5 1446.5,1450.5C 1440.79,1465.44 1434.96,1480.44 1429,1495.5C 1424.04,1502.03 1417.54,1504.19 1409.5,1502C 1408.55,1498.94 1408.22,1495.78 1408.5,1492.5C 1415.73,1494.71 1420.06,1492.05 1421.5,1484.5C 1416.43,1472.29 1411.76,1459.95 1407.5,1447.5C 1411.83,1447.5 1416.17,1447.5 1420.5,1447.5C 1422.23,1455.35 1424.56,1463.02 1427.5,1470.5C 1430.44,1463.02 1432.77,1455.35 1434.5,1447.5C 1438.5,1447.5 1442.5,1447.5 1446.5,1447.5 Z"/></g>
<g><path style="opacity:0.927" fill="#000000" d="M 608.5,1517.5 C 612.5,1517.5 616.5,1517.5 620.5,1517.5C 620.334,1524.51 620.5,1531.51 621,1538.5C 626.779,1532.84 633.279,1532 640.5,1536C 641.46,1537.42 642.293,1538.92 643,1540.5C 644.37,1550.78 644.87,1561.11 644.5,1571.5C 640.5,1571.5 636.5,1571.5 632.5,1571.5C 632.666,1563.83 632.5,1556.16 632,1548.5C 631.071,1543.12 628.238,1541.62 623.5,1544C 622.107,1545.17 621.273,1546.67 621,1548.5C 620.5,1556.16 620.334,1563.83 620.5,1571.5C 616.5,1571.5 612.5,1571.5 608.5,1571.5C 608.5,1553.5 608.5,1535.5 608.5,1517.5 Z"/></g>
<g><path style="opacity:0.928" fill="#000000" d="M 773.5,1517.5 C 777.5,1517.5 781.5,1517.5 785.5,1517.5C 785.5,1535.5 785.5,1553.5 785.5,1571.5C 781.5,1571.5 777.5,1571.5 773.5,1571.5C 773.5,1553.5 773.5,1535.5 773.5,1517.5 Z"/></g>
<g><path style="opacity:0.928" fill="#000000" d="M 562.5,1520.5 C 571.506,1520.33 580.506,1520.5 589.5,1521C 598.634,1523.77 601.467,1529.6 598,1538.5C 596.22,1540.29 594.387,1541.96 592.5,1543.5C 601.875,1548.57 604.042,1555.9 599,1565.5C 597.269,1567.62 595.102,1569.12 592.5,1570C 582.58,1571.42 572.58,1571.92 562.5,1571.5C 562.5,1554.5 562.5,1537.5 562.5,1520.5 Z M 575.5,1529.5 C 578.607,1529.35 581.607,1529.85 584.5,1531C 587.167,1533.67 587.167,1536.33 584.5,1539C 581.607,1540.15 578.607,1540.65 575.5,1540.5C 575.5,1536.83 575.5,1533.17 575.5,1529.5 Z M 575.5,1549.5 C 579.96,1548.88 583.96,1549.88 587.5,1552.5C 588.983,1555.41 588.65,1558.08 586.5,1560.5C 583.05,1562.22 579.383,1562.89 575.5,1562.5C 575.5,1558.17 575.5,1553.83 575.5,1549.5 Z"/></g>
<g><path style="opacity:0.924" fill="#000000" d="M 659.5,1533.5 C 664.179,1533.33 668.845,1533.5 673.5,1534C 678.099,1535.6 680.932,1538.76 682,1543.5C 682.5,1552.83 682.666,1562.16 682.5,1571.5C 678.833,1571.5 675.167,1571.5 671.5,1571.5C 671.657,1570.13 671.49,1568.79 671,1567.5C 669.891,1569.81 668.057,1571.31 665.5,1572C 652.498,1574 647.331,1568.5 650,1555.5C 651.167,1553 653,1551.17 655.5,1550C 660.863,1548.94 666.196,1547.77 671.5,1546.5C 670.556,1543.27 668.389,1541.61 665,1541.5C 660.87,1541.99 657.037,1543.32 653.5,1545.5C 652.345,1542.55 652.179,1539.55 653,1536.5C 655.294,1535.58 657.461,1534.58 659.5,1533.5 Z M 670.5,1553.5 C 671.937,1558.63 670.104,1562.29 665,1564.5C 660.794,1563.41 659.461,1560.74 661,1556.5C 664.134,1555.09 667.301,1554.09 670.5,1553.5 Z"/></g>
<g><path style="opacity:0.928" fill="#000000" d="M 699.5,1533.5 C 703.182,1533.33 706.848,1533.5 710.5,1534C 711.931,1534.47 713.097,1535.3 714,1536.5C 717.836,1534.61 722.003,1533.94 726.5,1534.5C 726.667,1548.17 726.5,1561.84 726,1575.5C 724.062,1583.1 719.228,1587.6 711.5,1589C 706.167,1589.67 700.833,1589.67 695.5,1589C 694.234,1588.69 693.067,1588.19 692,1587.5C 691.502,1584.52 691.335,1581.52 691.5,1578.5C 696.321,1580.46 701.321,1581.29 706.5,1581C 712.723,1579.05 715.223,1574.88 714,1568.5C 712.786,1570.05 711.286,1571.22 709.5,1572C 695.465,1574.3 688.465,1568.3 688.5,1554C 688.426,1544.97 692.093,1538.14 699.5,1533.5 Z M 706.5,1542.5 C 712.04,1543.21 715.04,1546.37 715.5,1552C 715.6,1557.66 713.1,1561.49 708,1563.5C 703.035,1562.03 700.535,1558.7 700.5,1553.5C 700.715,1548.73 702.715,1545.06 706.5,1542.5 Z"/></g>
<g><path style="opacity:0.924" fill="#000000" d="M 743.5,1533.5 C 748.179,1533.33 752.845,1533.5 757.5,1534C 762.099,1535.6 764.932,1538.76 766,1543.5C 766.5,1552.83 766.666,1562.16 766.5,1571.5C 762.833,1571.5 759.167,1571.5 755.5,1571.5C 755.657,1570.13 755.49,1568.79 755,1567.5C 753.891,1569.81 752.057,1571.31 749.5,1572C 736.498,1574 731.331,1568.5 734,1555.5C 735.167,1553 737,1551.17 739.5,1550C 744.863,1548.94 750.196,1547.77 755.5,1546.5C 754.556,1543.27 752.389,1541.61 749,1541.5C 744.87,1541.99 741.037,1543.32 737.5,1545.5C 736.345,1542.55 736.179,1539.55 737,1536.5C 739.294,1535.58 741.461,1534.58 743.5,1533.5 Z M 754.5,1553.5 C 755.937,1558.63 754.104,1562.29 749,1564.5C 744.794,1563.41 743.461,1560.74 745,1556.5C 748.134,1555.09 751.301,1554.09 754.5,1553.5 Z"/></g>
<g><path style="opacity:0.924" fill="#000000" d="M 812.5,1533.5 C 826.472,1531.63 833.472,1537.8 833.5,1552C 833,1566.51 825.667,1573.18 811.5,1572C 809.714,1571.22 808.214,1570.05 807,1568.5C 806.5,1575.16 806.334,1581.83 806.5,1588.5C 802.5,1588.5 798.5,1588.5 794.5,1588.5C 794.5,1570.5 794.5,1552.5 794.5,1534.5C 798.5,1534.5 802.5,1534.5 806.5,1534.5C 806.343,1535.87 806.51,1537.21 807,1538.5C 808.73,1536.6 810.563,1534.93 812.5,1533.5 Z M 812.5,1542.5 C 818.446,1543.12 821.113,1546.45 820.5,1552.5C 820.932,1558.33 818.432,1562 813,1563.5C 808.085,1562.01 805.919,1558.68 806.5,1553.5C 806.175,1548.48 808.175,1544.81 812.5,1542.5 Z"/></g>
<g><path style="opacity:0.91" fill="#000000" d="M 899.5,1533.5 C 902.167,1533.5 904.833,1533.5 907.5,1533.5C 907.5,1537.17 907.5,1540.83 907.5,1544.5C 902.907,1542.53 899.074,1543.53 896,1547.5C 894.599,1555.41 894.099,1563.41 894.5,1571.5C 890.5,1571.5 886.5,1571.5 882.5,1571.5C 882.5,1559.17 882.5,1546.83 882.5,1534.5C 886.5,1534.5 890.5,1534.5 894.5,1534.5C 894.343,1535.87 894.51,1537.21 895,1538.5C 896.025,1536.31 897.525,1534.65 899.5,1533.5 Z"/></g>
<g><path style="opacity:0.932" fill="#000000" d="M 839.5,1534.5 C 843.5,1534.5 847.5,1534.5 851.5,1534.5C 851.334,1543.17 851.5,1551.84 852,1560.5C 855.829,1564.66 859.163,1564.33 862,1559.5C 862.5,1551.17 862.666,1542.84 862.5,1534.5C 866.5,1534.5 870.5,1534.5 874.5,1534.5C 874.5,1546.83 874.5,1559.17 874.5,1571.5C 870.5,1571.5 866.5,1571.5 862.5,1571.5C 862.649,1570.45 862.483,1569.45 862,1568.5C 857.483,1572.24 852.316,1573.41 846.5,1572C 843.272,1570.44 841.105,1567.94 840,1564.5C 839.5,1554.51 839.334,1544.51 839.5,1534.5 Z"/></g>
</svg>
